<?xml version="1.0" standalone="no"?>
<!DOCTYPE svg PUBLIC "-//W3C//DTD SVG 20010904//EN"
 "http://www.w3.org/TR/2001/REC-SVG-20010904/DTD/svg10.dtd">
<svg version="1.0" xmlns="http://www.w3.org/2000/svg"
 width="225.000000pt" height="225.000000pt" viewBox="0 0 225.000000 225.000000"
 preserveAspectRatio="xMidYMid meet">

<g transform="translate(0.000000,225.000000) scale(0.100000,-0.100000)"
fill="#000000" stroke="none">
<path d="M1077 1783 c-4 -3 -21 -6 -39 -5 -24 0 -29 -2 -17 -8 9 -6 32 -4 60
5 24 7 35 14 23 14 -11 1 -24 -2 -27 -6z"/>
<path d="M917 1762 c-15 -2 -25 -8 -22 -13 3 -5 0 -6 -8 -3 -23 8 -213 -61
-285 -105 -108 -66 -133 -91 -134 -137 -1 -21 3 -47 7 -57 4 -10 5 -49 2 -87
-4 -51 -2 -72 8 -80 20 -17 28 -60 13 -78 -12 -15 -11 -16 5 -3 15 12 17 11
17 -12 0 -14 5 -29 10 -32 6 -3 10 -13 10 -22 0 -13 -2 -13 -17 -2 -14 13 -15
12 -7 -6 6 -11 7 -36 3 -55 -5 -27 -7 -30 -8 -10 -1 14 -6 32 -12 40 -8 11 -9
7 -6 -20 3 -19 3 -29 0 -22 -2 7 -22 12 -44 12 -49 0 -79 15 -79 38 0 15 -2
15 -10 2 -13 -20 -13 -33 0 -25 6 3 11 -2 12 -12 0 -10 2 -23 2 -28 3 -27 49
-86 90 -116 l45 -34 1 -65 c3 -324 212 -525 501 -481 93 14 222 58 213 73 -3
5 0 8 7 7 24 -5 91 30 83 42 -4 8 -3 9 5 5 13 -8 44 9 89 49 15 13 48 43 75
66 48 43 60 63 30 52 -11 -4 -14 -3 -9 6 4 6 16 9 26 6 13 -4 30 11 68 62 88
120 163 291 166 379 0 23 5 39 10 37 5 -4 7 59 4 148 -6 180 -21 231 -96 331
l-47 63 -3 -47 -3 -48 -135 0 -134 0 0 -354 0 -355 -56 -20 c-75 -29 -130 -40
-186 -41 l-48 0 0 385 0 386 -155 -3 -154 -3 27 23 c15 12 37 30 50 39 13 9
21 22 18 29 -3 9 0 11 11 7 11 -4 14 -2 9 5 -4 8 -2 10 7 6 8 -3 18 0 23 7 4
7 3 14 -4 17 -7 2 -4 11 8 25 17 17 22 19 33 7 10 -10 9 -12 -5 -7 -9 3 -19 0
-22 -8 -9 -25 7 -22 59 8 28 16 42 26 33 23 -10 -3 -20 -1 -23 4 -3 5 -13 8
-23 7 -9 -1 -29 -3 -45 -5z m-87 -108 c0 -8 -19 -13 -24 -6 -3 5 1 9 9 9 8 0
15 -2 15 -3z m926 -460 c-4 -18 -11 -34 -16 -34 -13 0 -13 17 0 25 6 3 10 21
11 38 0 18 3 26 6 19 3 -7 2 -29 -1 -48z m-9 -96 c-3 -7 -5 -2 -5 12 0 14 2
19 5 13 2 -7 2 -19 0 -25z m-1333 -68 c-6 -5 -24 21 -24 34 0 6 6 1 14 -10 8
-10 12 -21 10 -24z m1310 4 c-5 -19 -4 -25 5 -20 6 4 11 3 11 -3 0 -5 -4 -13
-10 -16 -11 -7 -25 39 -15 54 11 19 16 12 9 -15z m-1294 -39 c19 -22 8 -25
-12 -3 -10 10 -14 18 -9 18 5 0 14 -7 21 -15z m1254 -113 c-6 -4 -13 -14 -16
-21 -3 -12 -6 -12 -11 2 -3 9 -2 17 3 17 6 0 10 8 10 17 0 14 3 14 12 5 9 -9
10 -15 2 -20z m-37 -54 c-3 -8 -6 -5 -6 6 -1 11 2 17 5 13 3 -3 4 -12 1 -19z
m-11 -34 c1 -9 0 -13 -4 -10 -3 4 -7 14 -8 22 -1 9 0 13 4 10 3 -4 7 -14 8
-22z m-58 -90 c-12 -12 -17 -13 -23 -3 -5 8 -4 10 4 5 6 -4 14 0 17 9 4 9 9
13 12 10 3 -3 -1 -13 -10 -21z m-98 -99 c-13 -14 -26 -23 -28 -20 -7 7 29 45
41 45 6 0 0 -11 -13 -25z m-106 -96 c-49 -39 -57 -37 -14 4 19 18 39 31 43 29
4 -2 -9 -17 -29 -33z m-79 -49 c-3 -5 -12 -10 -18 -10 -7 0 -6 4 3 10 19 12
23 12 15 0z"/>
<path d="M380 1141 c0 -6 4 -13 10 -16 6 -3 7 1 4 9 -7 18 -14 21 -14 7z"/>
</g>
</svg>
